<?xml version="1.0" encoding="UTF-8"?>
<!-- Generated by Pixelmator Pro 3.6.13 -->
<svg width="30" height="26" viewBox="0 0 30 26" xmlns="http://www.w3.org/2000/svg">
    <path id="iconheart" fill="#ee5fa7" stroke="none" d="M 27.087999 1.545 C 23.802977 -1.113342 19.018064 -0.763216 16.154999 2.344999 L 15.001 3.531 L 13.846001 2.341 C 10.982935 -0.767216 6.198022 -1.117342 2.913 1.541 C 1.168726 3.047949 0.119168 5.20459 0.009536 7.507059 C -0.100097 9.80953 0.7398 12.056136 2.333 13.721999 L 13.671 25.433001 C 14.017523 25.794992 14.496886 25.99971 14.998 25.99971 C 15.499115 25.99971 15.978478 25.794992 16.324999 25.433001 L 27.661999 13.726001 C 29.257286 12.061599 30.099152 9.815155 29.990631 7.512245 C 29.882113 5.209335 28.832731 3.052011 27.087999 1.545 Z"/>
</svg>
